<svg width="57" height="52" viewBox="0 0 57 52" fill="none" xmlns="http://www.w3.org/2000/svg">
<path d="M6.9 18.2808H3.5C2.39543 18.2808 1.5 19.1763 1.5 20.2808V23.6644C1.5 24.769 2.39543 25.6644 3.5 25.6644H5.55M6.9 18.2808L22.425 1.50001M6.9 18.2808L50.1 18.4407M50.1 18.4407L53.5074 18.4533C54.6091 18.4574 55.5 19.3516 55.5 20.4533V23.6644C55.5 24.769 54.6046 25.6644 53.5 25.6644H51.45M50.1 18.4407L34.4142 1.50001M5.55 25.6644L10.3003 48.9006C10.4906 49.8315 11.3096 50.5 12.2597 50.5H44.7403C45.6904 50.5 46.5094 49.8315 46.6998 48.9006L51.45 25.6644M5.55 25.6644H51.45M28.5 30.5V45.5M42.5192 30.5L38.5 45.5M14.4808 30.5L18.5 45.5" stroke="#E1E1E1" stroke-width="3" stroke-linecap="round"/>
</svg>
